<?xml version="1.0" encoding="utf-8"?>
<svg width="800px" height="800px" viewBox="10.586 4.885 563.758 764.638" class="icon" version="1.1" xmlns="http://www.w3.org/2000/svg">
  <path d="M 560.09 285.088 C 560.09 280.205 557.118 274.523 553.459 272.413 L 106.896 14.59 C 103.224 12.467 100.252 14.715 100.252 19.598 L 100.252 444.382 C 100.252 449.265 103.224 454.947 106.896 457.07 L 553.459 714.893 C 557.118 717.003 560.09 714.756 560.09 709.873 L 560.09 285.088 Z" style="fill: rgb(251, 212, 59);"/>
  <path d="M 483.452 329.345 C 483.452 324.462 480.48 318.768 476.821 316.657 L 30.245 58.834 C 26.587 56.724 23.614 58.972 23.614 63.854 L 23.614 488.639 C 23.614 493.522 26.587 499.204 30.245 501.314 L 476.821 759.137 C 480.48 761.26 483.452 759.012 483.452 754.117 L 483.452 329.345 Z" fill="#4463B9"/>
  <path d="M 150.915 386.589 L 143.784 389.773 L 184.145 472.205 L 191.276 469.021 L 150.915 386.589 Z" fill="#F2F2F2"/>
  <path d="M 192.112 368.194 L 143.784 389.773 L 149.641 401.724 L 197.956 380.133 L 192.112 368.194 Z" fill="#F2F2F2"/>
  <path d="M 299.857 492.498 L 306.987 489.313 L 266.627 406.894 L 259.496 410.078 L 299.857 492.498 Z" fill="#F2F2F2"/>
  <path d="M 258.66 510.905 L 306.987 489.313 L 301.131 477.363 L 252.815 498.954 L 258.66 510.905 Z" fill="#F2F2F2"/>
  <path d="M 483.452 329.682 C 483.452 324.612 480.368 318.705 476.559 316.507 L 29.783 58.56 C 26.374 56.599 23.614 58.685 23.614 63.23 L 23.614 103.378 L 483.452 368.869 L 483.452 329.682 Z" fill="#385593"/>
  <path d="M 182.497 254.618 C 182.497 250.609 180.061 245.964 177.064 244.228 L 53.248 172.748 C 50.251 171.012 47.816 172.86 47.816 176.856 C 47.816 180.853 50.251 185.51 53.248 187.246 L 177.064 258.714 C 180.061 260.45 182.497 258.614 182.497 254.618 Z M 235.12 284.988 C 235.12 280.992 232.685 276.347 229.688 274.611 L 196.383 255.38 C 193.386 253.656 190.951 255.492 190.951 259.488 C 190.951 263.497 193.386 268.142 196.383 269.878 L 229.688 289.097 C 232.685 290.833 235.12 288.997 235.12 284.988 Z M 250.805 402.398 L 245.51 393.707 L 199.93 477.163 L 205.237 485.854 L 250.805 402.398 Z" fill="#F2F2F2"/>
</svg>