<svg xmlns="http://www.w3.org/2000/svg" version="1.1" class="w100 h-auto" width="660" height="400" viewBox="0 0 585 395"><g class="chart-area" font-family="sans-serif" transform="translate(100, 20)"><g transform="translate(0, 300)" fill="none" font-size="10" font-family="sans-serif" text-anchor="middle"><path class="domain" stroke="currentColor" d="M0.5,6V0.5H410.5V6"></path><g class="tick" opacity="1" transform="translate(35.04456733897202,0)"><line stroke="currentColor" y2="6"></line><text fill="currentColor" y="9" dy="0.71em" style="font-size: 12px;">2010</text></g><g class="tick" opacity="1" transform="translate(83.7270657124268,0)"><line stroke="currentColor" y2="6"></line><text fill="currentColor" y="9" dy="0.71em" style="font-size: 12px;">2012</text></g><g class="tick" opacity="1" transform="translate(132.47625243981784,0)"><line stroke="currentColor" y2="6"></line><text fill="currentColor" y="9" dy="0.71em" style="font-size: 12px;">2014</text></g><g class="tick" opacity="1" transform="translate(181.1587508132726,0)"><line stroke="currentColor" y2="6"></line><text fill="currentColor" y="9" dy="0.71em" style="font-size: 12px;">2016</text></g><g class="tick" opacity="1" transform="translate(229.90793754066365,0)"><line stroke="currentColor" y2="6"></line><text fill="currentColor" y="9" dy="0.71em" style="font-size: 12px;">2018</text></g><g class="tick" opacity="1" transform="translate(278.5904359141184,0)"><line stroke="currentColor" y2="6"></line><text fill="currentColor" y="9" dy="0.71em" style="font-size: 12px;">2020</text></g><g class="tick" opacity="1" transform="translate(327.33962264150944,0)"><line stroke="currentColor" y2="6"></line><text fill="currentColor" y="9" dy="0.71em" style="font-size: 12px;">2022</text></g><g class="tick" opacity="1" transform="translate(376.0221210149642,0)"><line stroke="currentColor" y2="6"></line><text fill="currentColor" y="9" dy="0.71em" style="font-size: 12px;">2024</text></g></g><g class="grid-lines" transform="translate(0, 300)" fill="none" font-size="10" font-family="sans-serif" text-anchor="middle"><path class="domain" stroke="currentColor" d="M0.5,-300V0.5H410.5V-300"></path><g class="tick" opacity="1" transform="translate(35.04456733897202,0)"><line stroke="currentColor" y2="-300" style="stroke: #ccc; fill: none;"></line></g><g class="tick" opacity="1" transform="translate(83.7270657124268,0)"><line stroke="currentColor" y2="-300" style="stroke: #ccc; fill: none;"></line></g><g class="tick" opacity="1" transform="translate(132.47625243981784,0)"><line stroke="currentColor" y2="-300" style="stroke: #ccc; fill: none;"></line></g><g class="tick" opacity="1" transform="translate(181.1587508132726,0)"><line stroke="currentColor" y2="-300" style="stroke: #ccc; fill: none;"></line></g><g class="tick" opacity="1" transform="translate(229.90793754066365,0)"><line stroke="currentColor" y2="-300" style="stroke: #ccc; fill: none;"></line></g><g class="tick" opacity="1" transform="translate(278.5904359141184,0)"><line stroke="currentColor" y2="-300" style="stroke: #ccc; fill: none;"></line></g><g class="tick" opacity="1" transform="translate(327.33962264150944,0)"><line stroke="currentColor" y2="-300" style="stroke: #ccc; fill: none;"></line></g><g class="tick" opacity="1" transform="translate(376.0221210149642,0)"><line stroke="currentColor" y2="-300" style="stroke: #ccc; fill: none;"></line></g></g><text x="205" y="360" class="axis-label x-axis-label" style="text-anchor: middle; font-weight: bold;">Year</text><g fill="none" font-size="10" font-family="sans-serif" text-anchor="end"><path class="domain" stroke="currentColor" d="M-6,300.5H0.5V0.5H-6"></path><g class="tick" opacity="1" transform="translate(0,300.5)"><line stroke="currentColor" x2="-6"></line><text fill="currentColor" x="-9" dy="0.32em" style="font-size: 12px;">0.00%</text></g><g class="tick" opacity="1" transform="translate(0,267.16666666666663)"><line stroke="currentColor" x2="-6"></line><text fill="currentColor" x="-9" dy="0.32em" style="font-size: 12px;">2.00%</text></g><g class="tick" opacity="1" transform="translate(0,233.83333333333334)"><line stroke="currentColor" x2="-6"></line><text fill="currentColor" x="-9" dy="0.32em" style="font-size: 12px;">4.00%</text></g><g class="tick" opacity="1" transform="translate(0,200.50000000000003)"><line stroke="currentColor" x2="-6"></line><text fill="currentColor" x="-9" dy="0.32em" style="font-size: 12px;">6.00%</text></g><g class="tick" opacity="1" transform="translate(0,167.16666666666669)"><line stroke="currentColor" x2="-6"></line><text fill="currentColor" x="-9" dy="0.32em" style="font-size: 12px;">8.00%</text></g><g class="tick" opacity="1" transform="translate(0,133.83333333333331)"><line stroke="currentColor" x2="-6"></line><text fill="currentColor" x="-9" dy="0.32em" style="font-size: 12px;">10.00%</text></g><g class="tick" opacity="1" transform="translate(0,100.50000000000001)"><line stroke="currentColor" x2="-6"></line><text fill="currentColor" x="-9" dy="0.32em" style="font-size: 12px;">12.00%</text></g><g class="tick" opacity="1" transform="translate(0,67.16666666666663)"><line stroke="currentColor" x2="-6"></line><text fill="currentColor" x="-9" dy="0.32em" style="font-size: 12px;">14.00%</text></g><g class="tick" opacity="1" transform="translate(0,33.833333333333314)"><line stroke="currentColor" x2="-6"></line><text fill="currentColor" x="-9" dy="0.32em" style="font-size: 12px;">16.00%</text></g><g class="tick" opacity="1" transform="translate(0,0.5)"><line stroke="currentColor" x2="-6"></line><text fill="currentColor" x="-9" dy="0.32em" style="font-size: 12px;">18.00%</text></g></g><g class="grid-lines" fill="none" font-size="10" font-family="sans-serif" text-anchor="end"><path class="domain" stroke="currentColor" d="M410,300.5H0.5V0.5H410"></path><g class="tick" opacity="1" transform="translate(0,300.5)"><line stroke="currentColor" x2="410" style="stroke: #ccc; fill: none;"></line></g><g class="tick" opacity="1" transform="translate(0,267.16666666666663)"><line stroke="currentColor" x2="410" style="stroke: #ccc; fill: none;"></line></g><g class="tick" opacity="1" transform="translate(0,233.83333333333334)"><line stroke="currentColor" x2="410" style="stroke: #ccc; fill: none;"></line></g><g class="tick" opacity="1" transform="translate(0,200.50000000000003)"><line stroke="currentColor" x2="410" style="stroke: #ccc; fill: none;"></line></g><g class="tick" opacity="1" transform="translate(0,167.16666666666669)"><line stroke="currentColor" x2="410" style="stroke: #ccc; fill: none;"></line></g><g class="tick" opacity="1" transform="translate(0,133.83333333333331)"><line stroke="currentColor" x2="410" style="stroke: #ccc; fill: none;"></line></g><g class="tick" opacity="1" transform="translate(0,100.50000000000001)"><line stroke="currentColor" x2="410" style="stroke: #ccc; fill: none;"></line></g><g class="tick" opacity="1" transform="translate(0,67.16666666666663)"><line stroke="currentColor" x2="410" style="stroke: #ccc; fill: none;"></line></g><g class="tick" opacity="1" transform="translate(0,33.833333333333314)"><line stroke="currentColor" x2="410" style="stroke: #ccc; fill: none;"></line></g><g class="tick" opacity="1" transform="translate(0,0.5)"><line stroke="currentColor" x2="410" style="stroke: #ccc; fill: none;"></line></g></g><g class="lines"><path class="line" d="M2.067,163.715L4.068,166.886L6.135,172.936L8.136,184.331L10.203,178.012L12.271,184.48L14.138,182.245L16.205,178.929L18.206,181.332L20.273,173.979L22.274,182.57L24.341,187.285L26.409,184.588L28.409,183.913L30.477,179.219L32.477,180.378L34.545,160.617L36.612,165.761L38.479,156.921L40.547,169.867L42.547,165.176L44.615,170.946L46.615,175.495L48.682,175.919L50.75,170.824L52.75,167.853L54.818,165.236L56.818,163.129L58.886,162.763L60.953,161.114L62.82,159.179L64.888,161.336L66.888,157.025L68.956,166.442L70.956,163.986L73.024,164.361L75.091,163.088L77.092,158.552L79.159,151.715L81.16,151.55L83.227,153.561L85.294,151.804L87.228,144.852L89.296,143.624L91.296,148.131L93.364,157.987L95.364,155.441L97.432,154.814L99.499,152.819L101.5,149.235L103.567,146.08L105.568,146.318L107.635,154.214L109.702,150.193L111.57,146.462L113.637,141.606L115.638,146.628L117.705,152.767L119.706,156.244L121.773,152.1L123.84,135.81L125.841,130.083L127.908,122.26L129.909,123.625L131.976,134.537L134.044,128.829L135.911,123.316L137.978,120.538L139.979,129.586L142.046,136.222L144.047,135.897L146.114,138.903L148.182,131.909L150.182,126.813L152.25,120.893L154.25,123.585L156.318,132.861L158.385,133.067L160.252,125.212L162.319,124.83L164.32,132.345L166.387,140.45L168.388,139.418L170.455,141.72L172.523,139.853L174.523,132.772L176.591,132.419L178.591,138.793L180.659,145.626L182.726,140.743L184.66,134.174L186.727,133.443L188.728,148.946L190.795,154.608L192.796,157.789L194.863,159.309L196.931,156.101L198.931,152.85L200.999,149.53L202.999,156.4L205.067,161.394L207.134,160.141L209.001,155.449L211.069,150.074L213.069,152.56L215.137,161.924L217.137,167.778L219.205,169.517L221.272,167.582L223.273,161.379L225.34,158.797L227.341,161.315L229.408,170.336L231.475,167.638L233.343,167.967L235.41,160.26L237.411,164.62L239.478,171.234L241.479,176.025L243.546,179.458L245.613,174.616L247.614,168.444L249.681,168.013L251.682,166.706L253.749,175.379L255.817,173.243L257.684,173.792L259.751,177.2L261.752,176.35L263.819,180.312L265.82,178.964L267.887,188.131L269.954,180.778L271.955,176.164L274.022,182.675L276.023,185.383L278.09,185.939L280.158,183.407L282.092,180.55L284.159,183.883L286.16,191.551L288.227,193.92L290.228,194.044L292.295,194.398L294.362,193.659L296.363,193.86L298.43,194.212L300.431,201.89L302.498,203.245L304.566,203.103L306.433,201.808L308.5,201.842L310.501,200.047L312.568,200.985L314.569,205.701L316.636,207.008L318.704,207.093L320.704,207.216L322.772,202.388L324.772,207.287L326.84,209.221L328.907,212.523L330.774,210.506L332.842,206.432L334.842,206.318L336.91,213.624L338.91,217.93L340.978,220.958L343.045,218.222L345.046,216.215L347.113,216.821L349.114,216.067L351.181,218.467L353.248,219.508L355.115,213.327L357.183,210.654L359.183,215.284L361.251,211.428L363.251,215.155L365.319,214.142L367.386,213.974L369.387,214.019L371.454,212.707L373.455,219.038L375.522,220.023L377.589,218.439L379.523,214.532L381.591,218.274L383.591,223.685L385.659,223.278L387.659,232.943L389.727,238.814L391.794,228.496L393.795,211.644L395.862,210.928L397.863,211.754L399.93,211.102L401.997,217.422L403.865,218.439L405.932,203.031L407.933,211.319L410,221.959" data-legend="java" style="stroke: rgb(31, 119, 180); fill: none;"></path><path class="line" d="M2.067,261.096L4.068,264.829L6.135,265.528L8.136,273.61L10.203,266.109L12.271,268.039L14.138,264.55L16.205,263.98L18.206,268.661L20.273,270.169L22.274,271.973L24.341,272.686L26.409,270.738L28.409,264.217L30.477,257.97L32.477,262.093L34.545,263.354L36.612,261.12L38.479,264.133L40.547,260.345L42.547,261.821L44.615,265.191L46.615,264.487L48.682,263.944L50.75,262.35L52.75,262.07L54.818,259.581L56.818,264.585L58.886,269.316L60.953,266.902L62.82,264.828L64.888,264.234L66.888,269.373L68.956,270.092L70.956,272.251L73.024,271.286L75.091,268.337L77.092,264.409L79.159,265.969L81.16,267.446L83.227,267.764L85.294,267.338L87.228,265.762L89.296,265.054L91.296,268.955L93.364,270.349L95.364,272.023L97.432,272.504L99.499,267.892L101.5,264.645L103.567,263.828L105.568,268.196L107.635,269.083L109.702,266.065L111.57,266.876L113.637,265.452L115.638,267.788L117.705,268.865L119.706,271.43L121.773,270.367L123.84,265.713L125.841,261.432L127.908,259.325L129.909,264.515L131.976,266.891L134.044,264.547L135.911,263.197L137.978,265.501L139.979,268.994L142.046,271.415L144.047,273.253L146.114,272.481L148.182,267.366L150.182,263.133L152.25,263.17L154.25,265.912L156.318,267.47L158.385,266.415L160.252,265.284L162.319,264.977L164.32,268.102L166.387,271.644L168.388,275.806L170.455,276.134L172.523,270.788L174.523,266.81L176.591,265.901L178.591,269.848L180.659,271.723L182.726,270.726L184.66,271.262L186.727,271.26L188.728,275.794L190.795,278.993L192.796,277.616L194.863,279.535L196.931,275.351L198.931,269.153L200.999,268.601L202.999,270.924L205.067,273.712L207.134,273.802L209.001,275.235L211.069,273.141L213.069,275.208L215.137,277.84L217.137,280.856L219.205,280.617L221.272,278.206L223.273,272.485L225.34,270.595L227.341,274.533L229.408,276.76L231.475,276.425L233.343,276.001L235.41,277.379L237.411,276.252L239.478,279.972L241.479,283.119L243.546,282.113L245.613,278.551L247.614,274.301L249.681,271.546L251.682,272.013L253.749,274.234L255.817,276.321L257.684,275.036L259.751,273.272L261.752,276.631L263.819,278.559L265.82,280.411L267.887,280.947L269.954,275.253L271.955,272.581L274.022,271.465L276.023,272.713L278.09,276.435L280.158,276.98L282.092,273.189L284.159,270.076L286.16,269.595L288.227,274.593L290.228,278.723L292.295,278.474L294.362,274.41L296.363,271.86L298.43,266.358L300.431,266.754L302.498,269.059L304.566,271.297L306.433,271.833L308.5,271.492L310.501,273.74L312.568,275.585L314.569,278.076L316.636,278.898L318.704,276.014L320.704,270.343L322.772,268.756L324.772,268.437L326.84,272.478L328.907,275.189L330.774,273.432L332.842,274.317L334.842,274.328L336.91,276.393L338.91,279.001L340.978,278.597L343.045,274.824L345.046,270.004L347.113,269.152L349.114,269.914L351.181,275.006L353.248,275.752L355.115,276.845L357.183,272.88L359.183,274.98L361.251,278.204L363.251,277.308L365.319,277.568L367.386,273.617L369.387,271.307L371.454,269.857L373.455,267.471L375.522,271.926L377.589,273.059L379.523,273.725L381.591,273.064L383.591,274L385.659,274.382L387.659,277.337L389.727,276.389L391.794,276.151L393.795,273.425L395.862,272.689L397.863,273.865L399.93,275.441L401.997,276.147L403.865,273.337L405.932,275.941L407.933,270.072L410,270.076" data-legend="c" style="stroke: rgb(255, 127, 14); fill: none;"></path><path class="line" d="M2.067,208.576L4.068,206.366L6.135,202.063L8.136,211.564L10.203,209.765L12.271,219.04L14.138,213.812L16.205,219.471L18.206,220.604L20.273,225.332L22.274,223.645L24.341,227.92L26.409,225.259L28.409,221.834L30.477,223.487L32.477,226.152L34.545,225.17L36.612,214.418L38.479,221.687L40.547,216.384L42.547,221.763L44.615,214.851L46.615,226.039L48.682,230.611L50.75,225.057L52.75,222.795L54.818,218.75L56.818,224.38L58.886,226.741L60.953,230.354L62.82,230.557L64.888,226.848L66.888,235.17L68.956,235.508L70.956,235.638L73.024,237.994L75.091,235.053L77.092,227.935L79.159,231.054L81.16,229.477L83.227,234.245L85.294,230.754L87.228,234.337L89.296,230.844L91.296,237.707L93.364,240.504L95.364,237.708L97.432,238.826L99.499,237.811L101.5,233.799L103.567,228.896L105.568,229.47L107.635,235.761L109.702,233.55L111.57,230.607L113.637,230.372L115.638,231.2L117.705,234.266L119.706,237.47L121.773,238.424L123.84,233.882L125.841,227.588L127.908,222.833L129.909,229.05L131.976,231.872L134.044,231.67L135.911,230.072L137.978,229.907L139.979,235.553L142.046,241.667L144.047,240.695L146.114,239.729L148.182,237.587L150.182,233.802L152.25,234.056L154.25,234.442L156.318,238.009L158.385,235.454L160.252,234.542L162.319,236.761L164.32,238.339L166.387,241.627L168.388,242.302L170.455,245.558L172.523,244.041L174.523,236.38L176.591,233.041L178.591,236.018L180.659,243.259L182.726,241.433L184.66,241.393L186.727,240.992L188.728,245.495L190.795,247.812L192.796,247.948L194.863,253.481L196.931,249.479L198.931,242.572L200.999,241.623L202.999,245.797L205.067,246.192L207.134,250.372L209.001,248.014L211.069,244.618L213.069,252.181L215.137,255.804L217.137,252.981L219.205,254.599L221.272,253.588L223.273,248.318L225.34,249.794L227.341,248.333L229.408,250.149L231.475,249.694L233.343,249.53L235.41,251.691L237.411,252.847L239.478,255.266L241.479,258.682L243.546,258.407L245.613,256.292L247.614,254.697L249.681,250.985L251.682,254.616L253.749,255.831L255.817,256.995L257.684,253.579L259.751,251.793L261.752,253.911L263.819,254.708L265.82,252.279L267.887,259.58L269.954,253.382L271.955,246.506L274.022,246.232L276.023,246.602L278.09,251.508L280.158,252.63L282.092,249.891L284.159,242.844L286.16,242.245L288.227,244.872L290.228,247.542L292.295,245.751L294.362,253.337L296.363,248.672L298.43,246.203L300.431,244.004L302.498,250.533L304.566,247.584L306.433,251.308L308.5,251.282L310.501,247.353L312.568,250.066L314.569,252.632L316.636,255.23L318.704,249.542L320.704,247.513L322.772,246.207L324.772,246.474L326.84,249.113L328.907,252.729L330.774,252.155L332.842,248.916L334.842,248.832L336.91,253.485L338.91,254.628L340.978,256.01L343.045,254.902L345.046,253.499L347.113,254.439L349.114,254.295L351.181,258.063L353.248,259.863L355.115,254.578L357.183,256.14L359.183,258.419L361.251,256.034L363.251,255.211L365.319,257.198L367.386,255.653L369.387,249.934L371.454,255.325L373.455,248.05L375.522,248.918L377.589,251.145L379.523,252.811L381.591,252.184L383.591,245.05L385.659,247.446L387.659,252.549L389.727,251.101L391.794,246.305L393.795,247.414L395.862,243.443L397.863,245.707L399.93,246.618L401.997,247.497L403.865,239.169L405.932,239.538L407.933,234.746L410,234.483" data-legend="c++" style="stroke: rgb(44, 160, 44); fill: none;"></path><path class="line" d="M2.067,235.079L4.068,241.304L6.135,240.276L8.136,238.656L10.203,232.645L12.271,239.448L14.138,236.867L16.205,239.068L18.206,234.765L20.273,237.827L22.274,239.615L24.341,241.603L26.409,240.248L28.409,234.289L30.477,232.042L32.477,229.237L34.545,227.495L36.612,230.06L38.479,233.266L40.547,239.289L42.547,234.921L44.615,233.464L46.615,228.586L48.682,234.206L50.75,238.258L52.75,229.627L54.818,237.233L56.818,240.225L58.886,239.074L60.953,239.08L62.82,237.645L64.888,241.545L66.888,241.097L68.956,241.221L70.956,238.939L73.024,240.008L75.091,242.037L77.092,240.065L79.159,240.283L81.16,241.253L83.227,239.203L85.294,238.926L87.228,236.744L89.296,235.792L91.296,236.356L93.364,232.464L95.364,232.238L97.432,230.367L99.499,233.324L101.5,231.247L103.567,227.405L105.568,228.673L107.635,230.084L109.702,226.197L111.57,226.405L113.637,222.347L115.638,221.273L117.705,219.439L119.706,218.134L121.773,221.655L123.84,219.352L125.841,213.627L127.908,209.642L129.909,214.408L131.976,212.55L134.044,211.663L135.911,207.797L137.978,207.272L139.979,212.023L142.046,207.949L144.047,206.099L146.114,206.399L148.182,211.386L150.182,206.93L152.25,203.606L154.25,202.211L156.318,202.004L158.385,198.224L160.252,197.382L162.319,198.832L164.32,198.475L166.387,194.433L168.388,194.044L170.455,195.976L172.523,196.286L174.523,187.305L176.591,183.994L178.591,186.393L180.659,185.222L182.726,181.576L184.66,182.492L186.727,183.324L188.728,183.472L190.795,182.077L192.796,177.908L194.863,180.304L196.931,178.718L198.931,170.12L200.999,163.622L202.999,164.591L205.067,164.098L207.134,157.981L209.001,157.008L211.069,152.466L213.069,153.955L215.137,148.778L217.137,141.623L219.205,143.48L221.272,139.524L223.273,132.234L225.34,130.922L227.341,127.091L229.408,129.566L231.475,120.686L233.343,125.559L235.41,124.217L237.411,123.346L239.478,116.453L241.479,110.471L243.546,110.746L245.613,112.546L247.614,108.882L249.681,96.794L251.682,99.143L253.749,108.394L255.817,97.631L257.684,91.173L259.751,81.646L261.752,88.925L263.819,85.773L265.82,79.156L267.887,77.883L269.954,91.473L271.955,73.773L274.022,65.647L276.023,69.73L278.09,70.493L280.158,67.42L282.092,55.429L284.159,45.677L286.16,34.285L288.227,34.1L290.228,33.205L292.295,38.652L294.362,41.611L296.363,29.387L298.43,23.634L300.431,21.372L302.498,24.558L304.566,26.078L306.433,30.095L308.5,22.197L310.501,18.187L312.568,27.266L314.569,20.935L316.636,26.541L318.704,33.076L320.704,19.999L322.772,16.939L324.772,14.677L326.84,22.371L328.907,15.048L330.774,17.55L332.842,7.869L334.842,19.027L336.91,16.581L338.91,10.952L340.978,21.42L343.045,22.752L345.046,6.432L347.113,10.25L349.114,23.602L351.181,39.575L353.248,43.546L355.115,52.204L357.183,51.782L359.183,57.14L361.251,58.963L363.251,57.121L365.319,67.43L367.386,76.435L369.387,70.232L371.454,73.017L373.455,76.576L375.522,79.476L377.589,71.798L379.523,76.514L381.591,68.77L383.591,69.075L385.659,73.217L387.659,84.701L389.727,84.359L391.794,97.79L393.795,95.946L395.862,79.669L397.863,90.758L399.93,91.545L401.997,104.12L403.865,94.991L405.932,92.673L407.933,94.426L410,109.513" data-legend="python" style="stroke: rgb(214, 39, 40); fill: none;"></path><path class="line" d="M2.067,274.226L4.068,271.933L6.135,269.937L8.136,269.96L10.203,273.592L12.271,272.757L14.138,267.524L16.205,270.327L18.206,271.939L20.273,274.234L22.274,276.723L24.341,271.86L26.409,275.547L28.409,280.203L30.477,280.345L32.477,277.828L34.545,279.97L36.612,277.476L38.479,278.39L40.547,279.651L42.547,282.337L44.615,283.442L46.615,281.261L48.682,283.611L50.75,283.856L52.75,283.33L54.818,282.847L56.818,285.026L58.886,282.448L60.953,283.624L62.82,285.174L64.888,282.522L66.888,284.67L68.956,284.799L70.956,285.237L73.024,285.651L75.091,286.246L77.092,285.254L79.159,286.738L81.16,286.072L83.227,285.741L85.294,285.774L87.228,287.05L89.296,287.132L91.296,286.832L93.364,288.458L95.364,287.991L97.432,286.907L99.499,285.903L101.5,286.686L103.567,285.272L105.568,286.444L107.635,285.803L109.702,285.768L111.57,286.5L113.637,284.786L115.638,285.636L117.705,285.131L119.706,284.678L121.773,284.608L123.84,284.125L125.841,283.522L127.908,284.798L129.909,284.44L131.976,284.321L134.044,284.876L135.911,284.205L137.978,284.409L139.979,286.332L142.046,286.357L144.047,285.988L146.114,286.54L148.182,286.94L150.182,286.598L152.25,286.775L154.25,286.052L156.318,286.691L158.385,287.934L160.252,288.016L162.319,288.198L164.32,288.011L166.387,287.681L168.388,288.291L170.455,288.643L172.523,288.296L174.523,288.985L176.591,289.397L178.591,288.841L180.659,288.56L182.726,289.158L184.66,289.217L186.727,289.808L188.728,289.252L190.795,289.982L192.796,289.897L194.863,289.911L196.931,290.57L198.931,290.573L200.999,290.647L202.999,290.954L205.067,290.922L207.134,291.091L209.001,291.242L211.069,291.157L213.069,291.479L215.137,291.868L217.137,291.871L219.205,292.622L221.272,292.256L223.273,292.587L225.34,292.406L227.341,292.476L229.408,293.395L231.475,292.951L233.343,293.473L235.41,294.074L237.411,293.163L239.478,293.514L241.479,293.748L243.546,294.555L245.613,293.261L247.614,293.916L249.681,293.739L251.682,294.128L253.749,293.374L255.817,292.879L257.684,293.546L259.751,293.116L261.752,293.622L263.819,293.485L265.82,293.747L267.887,294.334L269.954,294.322L271.955,294.014L274.022,294.46L276.023,293.968L278.09,294.781L280.158,294.481L282.092,294.341L284.159,294.681L286.16,295.413L288.227,295.283L290.228,295.323L292.295,295.132L294.362,295.147L296.363,294.773L298.43,295.262L300.431,295.465L302.498,295.414L304.566,295.319L306.433,294.886L308.5,294.817L310.501,295.811L312.568,295.834L314.569,296.275L316.636,295.605L318.704,296.045L320.704,295.619L322.772,296.064L324.772,295.487L326.84,296.155L328.907,295.538L330.774,295.819L332.842,296.314L334.842,296.183L336.91,295.747L338.91,295.846L340.978,296.475L343.045,295.986L345.046,296.476L347.113,296.028L349.114,296.436L351.181,295.756L353.248,295.415L355.115,295.52L357.183,296.45L359.183,295.337L361.251,295.678L363.251,295.537L365.319,296.214L367.386,295.951L369.387,295.304L371.454,296.291L373.455,295.844L375.522,296.219L377.589,296.896L379.523,295.772L381.591,295.657L383.591,295.912L385.659,296.924L387.659,295.9L389.727,296.1L391.794,295.514L393.795,295.725L395.862,295.579L397.863,296.884L399.93,296.438L401.997,295.657L403.865,298.07L405.932,296.234L407.933,297.056L410,296.441" data-legend="vb.net" style="stroke: rgb(148, 103, 189); fill: none;"></path><path class="line" d="M2.067,223.53L4.068,216.148L6.135,222.372L8.136,212.266L10.203,215.859L12.271,209.124L14.138,216.869L16.205,217.329L18.206,206.442L20.273,207.457L22.274,208.509L24.341,204.169L26.409,210.218L28.409,205.012L30.477,202.077L32.477,197.186L34.545,201.764L36.612,200.881L38.479,203.689L40.547,198.793L42.547,195.284L44.615,195.059L46.615,192.712L48.682,194.37L50.75,190.185L52.75,191.829L54.818,190.338L56.818,180.28L58.886,186.124L60.953,186.542L62.82,187.48L64.888,179.113L66.888,177.645L68.956,169.842L70.956,164.74L73.024,160.601L75.091,165.488L77.092,167.217L79.159,166.808L81.16,165.315L83.227,161.23L85.294,164.979L87.228,165.696L89.296,161.136L91.296,156.287L93.364,156.062L95.364,154.43L97.432,152.586L99.499,158.223L101.5,161.054L103.567,160.16L105.568,154.421L107.635,153.188L109.702,150.622L111.57,152.343L113.637,150.201L115.638,148.411L117.705,145.572L119.706,140.359L121.773,134.251L123.84,121.026L125.841,120.727L127.908,124.405L129.909,117.466L131.976,112.813L134.044,111.515L135.911,117.339L137.978,115.318L139.979,112.103L142.046,111.419L144.047,109.788L146.114,110.982L148.182,117.152L150.182,116.603L152.25,119.08L154.25,116.665L156.318,112.766L158.385,114.092L160.252,118.42L162.319,114.93L164.32,99.757L166.387,97.772L168.388,94.085L170.455,94.731L172.523,97.732L174.523,103.275L176.591,99.503L178.591,94.606L180.659,90.88L182.726,99.497L184.66,99.101L186.727,99.5L188.728,95.86L190.795,97.819L192.796,88.858L194.863,90.13L196.931,99.347L198.931,103.622L200.999,103.035L202.999,94.776L205.067,96.176L207.134,96.272L209.001,102.039L211.069,99.874L213.069,97.951L215.137,96.099L217.137,97.65L219.205,97.46L221.272,102.941L223.273,103.735L225.34,106.659L227.341,103.508L229.408,101.606L231.475,110.482L233.343,113.55L235.41,113.853L237.411,118.314L239.478,112.235L241.479,111.828L243.546,109.569L245.613,112.605L247.614,116.825L249.681,117.481L251.682,117.758L253.749,118.776L255.817,118.995L257.684,118.169L259.751,122.031L261.752,119.737L263.819,115.876L265.82,119.568L267.887,112.512L269.954,116.406L271.955,123.236L274.022,120.968L276.023,117.952L278.09,115.926L280.158,117.1L282.092,110.439L284.159,107.625L286.16,105.974L288.227,105.989L290.228,98.36L292.295,95.409L294.362,100.393L296.363,104.88L298.43,106.448L300.431,98.753L302.498,96.991L304.566,104.573L306.433,110.165L308.5,103.522L310.501,101.131L312.568,104.204L314.569,99.777L316.636,98.584L318.704,97.589L320.704,104.618L322.772,110.147L324.772,103.873L326.84,103.461L328.907,110.691L330.774,115.008L332.842,101.733L334.842,107.391L336.91,109.383L338.91,106.66L340.978,105.261L343.045,107.108L345.046,115.557L347.113,119.903L349.114,121.128L351.181,125.615L353.248,133.207L355.115,136.174L357.183,138.392L359.183,144.047L361.251,144.066L363.251,140.452L365.319,152.525L367.386,155.809L369.387,165.151L371.454,165.132L373.455,152.023L375.522,157.241L377.589,165.112L379.523,160.51L381.591,170.14L383.591,168.819L385.659,173.975L387.659,179.416L389.727,178.466L391.794,181.596L393.795,188.859L395.862,187.301L397.863,190.431L399.93,189.781L401.997,194.995L403.865,194.85L405.932,202.718L407.933,204.205L410,202.845" data-legend="javascript" style="stroke: rgb(140, 86, 75); fill: none;"></path><path class="line" d="M2.067,296.596L4.068,298.137L6.135,297.862L8.136,297.614L10.203,297.648L12.271,296.534L14.138,298.017L16.205,296.033L18.206,296.984L20.273,297.19L22.274,298.33L24.341,297.522L26.409,296.828L28.409,296.608L30.477,296.402L32.477,297.228L34.545,296.249L36.612,297.405L38.479,296.033L40.547,295.829L42.547,296.5L44.615,297.281L46.615,297.343L48.682,297.727L50.75,296.782L52.75,296.756L54.818,296.038L56.818,296.976L58.886,297.201L60.953,297.017L62.82,296.781L64.888,297.201L66.888,297.347L68.956,297.637L70.956,297.654L73.024,297.498L75.091,297.451L77.092,296.484L79.159,296.727L81.16,296.298L83.227,297.536L85.294,296.87L87.228,296.705L89.296,296.369L91.296,297.159L93.364,297.428L95.364,297.622L97.432,297.748L99.499,297.183L101.5,296.469L103.567,296.563L105.568,296.764L107.635,296.889L109.702,296.434L111.57,296.438L113.637,296.764L115.638,296.971L117.705,296.898L119.706,297.18L121.773,297.919L123.84,297.065L125.841,296.567L127.908,296.027L129.909,296.401L131.976,296.991L134.044,296.652L135.911,296.37L137.978,296.891L139.979,296.866L142.046,297.257L144.047,297.971L146.114,298.111L148.182,297.215L150.182,296.232L152.25,296.152L154.25,296.502L156.318,296.627L158.385,296.435L160.252,296.613L162.319,296.143L164.32,296.676L166.387,297.612L168.388,297.765L170.455,297.965L172.523,297.562L174.523,296.126L176.591,296.204L178.591,296.567L180.659,297.697L182.726,296.9L184.66,296.355L186.727,296.454L188.728,297.11L190.795,297.351L192.796,298.069L194.863,297.62L196.931,296.696L198.931,296.179L200.999,296.033L202.999,296.769L205.067,297.076L207.134,297.098L209.001,296.916L211.069,297.021L213.069,296.858L215.137,297.735L217.137,297.932L219.205,297.953L221.272,297.624L223.273,296.741L225.34,296.158L227.341,297.128L229.408,297.345L231.475,296.9L233.343,296.902L235.41,296.673L237.411,297.015L239.478,297.787L241.479,298.082L243.546,298.117L245.613,296.995L247.614,296.631L249.681,296.592L251.682,297.205L253.749,297.515L255.817,297.418L257.684,297.094L259.751,296.652L261.752,297.377L263.819,297.516L265.82,297.901L267.887,297.946L269.954,297.26L271.955,296.491L274.022,296.802L276.023,296.83L278.09,297.368L280.158,296.85L282.092,296.823L284.159,296.513L286.16,296.764L288.227,296.78L290.228,297.259L292.295,296.99L294.362,296.486L296.363,295.907L298.43,295.312L300.431,296.248L302.498,296.297L304.566,296.862L306.433,296.378L308.5,296.038L310.501,296.203L312.568,296.623L314.569,297.49L316.636,297.768L318.704,297.316L320.704,297.113L322.772,296.036L324.772,296.015L326.84,296.78L328.907,296.832L330.774,296.819L332.842,296.344L334.842,296.285L336.91,296.4L338.91,296.9L340.978,297.57L343.045,297.177L345.046,296.428L347.113,295.874L349.114,295.475L351.181,296.088L353.248,296.66L355.115,296.871L357.183,295.612L359.183,295.923L361.251,296.292L363.251,295.943L365.319,296.186L367.386,295.63L369.387,294.818L371.454,294.706L373.455,293.326L375.522,294.185L377.589,295.565L379.523,294.904L381.591,293.226L383.591,293.679L385.659,295.606L387.659,296.161L389.727,294.548L391.794,295.426L393.795,294.314L395.862,293.506L397.863,292.783L399.93,294.872L401.997,294.879L403.865,294.639L405.932,293.619L407.933,295.339L410,293.672" data-legend="assembly" style="stroke: rgb(227, 119, 194); fill: none;"></path><path class="line" d="M2.067,242.495L4.068,229.891L6.135,233.595L8.136,233.603L10.203,233.179L12.271,227.704L14.138,226.455L16.205,224.866L18.206,223.685L20.273,206.321L22.274,195.67L24.341,188.163L26.409,185.407L28.409,191.488L30.477,183.124L32.477,175.371L34.545,172.282L36.612,182.156L38.479,180.499L40.547,178.141L42.547,172.079L44.615,177.231L46.615,173.503L48.682,165.292L50.75,171.841L52.75,181.964L54.818,177.316L56.818,170.87L58.886,165.983L60.953,164.848L62.82,165.934L64.888,166.968L66.888,165.152L68.956,164.248L70.956,156.127L73.024,161.026L75.091,167.937L77.092,167.25L79.159,166.823L81.16,165.331L83.227,166.435L85.294,166.222L87.228,163.935L89.296,165.307L91.296,163.824L93.364,164.967L95.364,161.79L97.432,159.424L99.499,160.938L101.5,168.622L103.567,166.864L105.568,163.384L107.635,163.247L109.702,163.049L111.57,164.057L113.637,169.143L115.638,168.427L117.705,165.643L119.706,164.302L121.773,159.296L123.84,156.301L125.841,161.199L127.908,159.346L129.909,154.685L131.976,151.618L134.044,153.26L135.911,152.681L137.978,148.297L139.979,160.141L142.046,166.397L144.047,165.206L146.114,164.843L148.182,165.54L150.182,168.668L152.25,169.196L154.25,167.243L156.318,162.678L158.385,165.38L160.252,168.125L162.319,167.665L164.32,168.403L166.387,171.742L168.388,168.081L170.455,168.281L172.523,172.433L174.523,174.805L176.591,174.773L178.591,166.539L180.659,165.149L182.726,167.222L184.66,174.156L186.727,176.72L188.728,172.082L190.795,175.89L192.796,177.363L194.863,180.778L196.931,181.204L198.931,182.654L200.999,185.388L202.999,181.328L205.067,180.161L207.134,180.274L209.001,183.181L211.069,183.43L213.069,182.55L215.137,189.42L217.137,190.202L219.205,189.852L221.272,189.229L223.273,193.178L225.34,194.655L227.341,194.503L229.408,194.114L231.475,199.786L233.343,204.337L235.41,207.571L237.411,205.038L239.478,208.057L241.479,209.766L243.546,209.551L245.613,210.306L247.614,214.391L249.681,220.221L251.682,220.616L253.749,219.105L255.817,216.179L257.684,218.466L259.751,220.954L261.752,222.394L263.819,225.304L265.82,225.573L267.887,228.093L269.954,231.437L271.955,233.046L274.022,230.571L276.023,233.31L278.09,232.169L280.158,234.184L282.092,238.746L284.159,238.996L286.16,241.166L288.227,241.878L290.228,239.675L292.295,243.3L294.362,243.19L296.363,245.546L298.43,242.343L300.431,239.646L302.498,242.583L304.566,243.662L306.433,246.137L308.5,246.51L310.501,246.277L312.568,246.688L314.569,247.079L316.636,246.648L318.704,247.762L320.704,249.035L322.772,250.668L324.772,251.364L326.84,252.334L328.907,253.8L330.774,257.31L332.842,253.12L334.842,251.148L336.91,251.647L338.91,253.085L340.978,253.46L343.045,253.939L345.046,256.066L347.113,257.128L349.114,258.715L351.181,255.95L353.248,260.357L355.115,263.172L357.183,260.627L359.183,258.801L361.251,258.595L363.251,261.026L365.319,257.566L367.386,255.46L369.387,260.685L371.454,259.776L373.455,260.318L375.522,259.441L377.589,260.938L379.523,256.662L381.591,260.711L383.591,260.557L385.659,257.025L387.659,263.583L389.727,259.615L391.794,263.759L393.795,259.31L395.862,260.208L397.863,264.461L399.93,260.49L401.997,265.971L403.865,268.262L405.932,267.782L407.933,262.712L410,265.725" data-legend="php" style="stroke: rgb(127, 127, 127); fill: none;"></path><path class="line" d="M2.067,284.438L4.068,285.093L6.135,287.04L8.136,281.33L10.203,284.391L12.271,284.309L14.138,288.762L16.205,287.226L18.206,287.15L20.273,285.294L22.274,286.639L24.341,287.195L26.409,287.364L28.409,286.941L30.477,285.873L32.477,288.333L34.545,288.785L36.612,286.952L38.479,287.421L40.547,287.791L42.547,290.731L44.615,287.642L46.615,287.959L48.682,285.62L50.75,287.377L52.75,286.917L54.818,288.79L56.818,287.905L58.886,290.046L60.953,290.239L62.82,289.927L64.888,290.337L66.888,290.244L68.956,290.359L70.956,288.974L73.024,290.418L75.091,291.724L77.092,290.752L79.159,290.647L81.16,291.258L83.227,291.835L85.294,291.65L87.228,292.308L89.296,292.158L91.296,291.907L93.364,290.461L95.364,292.081L97.432,290.946L99.499,291.575L101.5,292.331L103.567,292.761L105.568,293.141L107.635,292.955L109.702,291.8L111.57,291.76L113.637,291.769L115.638,290.883L117.705,291.206L119.706,290.92L121.773,291.764L123.84,293.041L125.841,292.557L127.908,292.15L129.909,292.24L131.976,292.803L134.044,292.936L135.911,292.643L137.978,292.878L139.979,292.399L142.046,292.976L144.047,293.027L146.114,292.95L148.182,293.109L150.182,293.773L152.25,293.357L154.25,293.873L156.318,294.026L158.385,294.362L160.252,294.328L162.319,294.899L164.32,295.213L166.387,294.891L168.388,295.013L170.455,294.87L172.523,295.599L174.523,295.52L176.591,295.617L178.591,295.335L180.659,295.851L182.726,295.52L184.66,296.087L186.727,295.775L188.728,295.674L190.795,296.022L192.796,296.053L194.863,295.723L196.931,295.453L198.931,296.141L200.999,296.467L202.999,296.498L205.067,296.913L207.134,296.162L209.001,296.572L211.069,296.51L213.069,296.795L215.137,297.043L217.137,296.974L219.205,296.62L221.272,296.915L223.273,296.691L225.34,297.359L227.341,297.244L229.408,297.419L231.475,297.463L233.343,297.186L235.41,297.37L237.411,297.56L239.478,297.392L241.479,297.393L243.546,297.572L245.613,297.593L247.614,297.074L249.681,297.351L251.682,297.205L253.749,297.027L255.817,297.105L257.684,297.568L259.751,297.735L261.752,297.523L263.819,297.067L265.82,297.351L267.887,297.625L269.954,297.533L271.955,297.69L274.022,297.498L276.023,298.006L278.09,298.106L280.158,297.923L282.092,297.875L284.159,297.974L286.16,298.078L288.227,298.05L290.228,298.207L292.295,297.811L294.362,298.016L296.363,297.971L298.43,298.12L300.431,298.345L302.498,298.245L304.566,298.29L306.433,298.269L308.5,298.305L310.501,298.481L312.568,297.976L314.569,298.117L316.636,298.364L318.704,298.418L320.704,298.194L322.772,298.906L324.772,298.491L326.84,298.213L328.907,298.572L330.774,298.588L332.842,298.52L334.842,298.674L336.91,298.132L338.91,298.076L340.978,298.26L343.045,298.662L345.046,298.708L347.113,298.346L349.114,298.358L351.181,298.76L353.248,298.459L355.115,298.204L357.183,298.644L359.183,298.675L361.251,298.559L363.251,298.242L365.319,298.644L367.386,298.136L369.387,298.284L371.454,298.516L373.455,297.882L375.522,298.823L377.589,298.67L379.523,298.226L381.591,299.004L383.591,298.399L385.659,298.682L387.659,298.733L389.727,298.281L391.794,298.756L393.795,298.992L395.862,298.664L397.863,298.36L399.93,298.327L401.997,298.898L403.865,298.427L405.932,298.431L407.933,297.547L410,297.627" data-legend="perl" style="stroke: rgb(188, 189, 34); fill: none;"></path><path class="line" d="M2.067,265.351L4.068,271.351L6.135,279.424L8.136,277.68L10.203,278.083L12.271,272.468L14.138,272.813L16.205,271.755L18.206,273.775L20.273,274.234L22.274,274.009L24.341,275.01L26.409,275.598L28.409,277.182L30.477,271.307L32.477,274.52L34.545,274.419L36.612,274.13L38.479,277.68L40.547,274.707L42.547,274.883L44.615,274.316L46.615,274.839L48.682,273.83L50.75,274.286L52.75,275.628L54.818,277.628L56.818,275.325L58.886,274.725L60.953,274.695L62.82,272.716L64.888,274.038L66.888,273.773L68.956,273.594L70.956,273.575L73.024,270.94L75.091,274.494L77.092,273.357L79.159,273.166L81.16,272.861L83.227,272.59L85.294,272.271L87.228,272.478L89.296,274.382L91.296,275.381L93.364,275.713L95.364,275.566L97.432,275.554L99.499,275.119L101.5,274.698L103.567,275.813L105.568,276.336L107.635,275.465L109.702,275.696L111.57,275.261L113.637,275.856L115.638,276.378L117.705,276.412L119.706,276.793L121.773,275.49L123.84,275.77L125.841,274.541L127.908,275.426L129.909,275.242L131.976,275.472L134.044,276.745L135.911,276.149L137.978,276.219L139.979,274.438L142.046,275.862L144.047,275.739L146.114,274.67L148.182,277.031L150.182,277.189L152.25,278.684L154.25,276.764L156.318,275.445L158.385,277.43L160.252,278.202L162.319,277.801L164.32,277.312L166.387,276.924L168.388,277.756L170.455,278.541L172.523,279.58L174.523,280.214L176.591,281.511L178.591,280.185L180.659,280.048L182.726,279.874L184.66,281.107L186.727,281.015L188.728,281.029L190.795,280.753L192.796,281.888L194.863,282.594L196.931,281.072L198.931,282.478L200.999,283.089L202.999,283.065L205.067,282.609L207.134,284.389L209.001,285.015L211.069,285.975L213.069,286.282L215.137,286.617L217.137,285.724L219.205,286.758L221.272,287.285L223.273,287.142L225.34,288.294L227.341,288.197L229.408,287.779L231.475,288.659L233.343,289.652L235.41,289.76L237.411,289.593L239.478,289.175L241.479,290.049L243.546,290.65L245.613,290.913L247.614,290.557L249.681,290.568L251.682,289.667L253.749,289.619L255.817,290.922L257.684,291.166L259.751,291.525L261.752,291.482L263.819,291.251L265.82,291.491L267.887,290.399L269.954,291.135L271.955,290.594L274.022,292.187L276.023,291.475L278.09,291.214L280.158,292.393L282.092,292.313L284.159,292.933L286.16,293.7L288.227,293.983L290.228,292.918L292.295,293.695L294.362,293.88L296.363,294.14L298.43,293.72L300.431,293.709L302.498,293.684L304.566,293.197L306.433,294.362L308.5,293.583L310.501,294.95L312.568,294.52L314.569,293.943L316.636,293.83L318.704,293.728L320.704,294.125L322.772,294.444L324.772,294.49L326.84,293.73L328.907,294.006L330.774,293.941L332.842,293.62L334.842,293.662L336.91,293.574L338.91,293.845L340.978,293.641L343.045,293.49L345.046,294.068L347.113,293.633L349.114,294.025L351.181,294.306L353.248,293.834L355.115,294.882L357.183,295.118L359.183,294.344L361.251,294.931L363.251,294.591L365.319,295.056L367.386,294.698L369.387,294.689L371.454,295.549L373.455,294.845L375.522,294.721L377.589,294.974L379.523,295.432L381.591,295.657L383.591,295.87L385.659,295.342L387.659,296.384L389.727,295.429L391.794,296.092L393.795,296.613L395.862,295.625L397.863,296.282L399.93,296.492L401.997,296.111L403.865,296.283L405.932,296.339L407.933,296.075L410,296.045" data-legend="ruby" style="stroke: rgb(23, 190, 207); fill: none;"></path><path class="line" d="M2.067,300L4.068,300L6.135,300L8.136,300L10.203,299.893L12.271,299.904L14.138,299.917L16.205,300L18.206,299.869L20.273,300L22.274,300L24.341,299.845L26.409,299.847L28.409,299.954L30.477,299.868L32.477,299.955L34.545,300L36.612,299.925L38.479,299.968L40.547,299.933L42.547,299.968L44.615,299.909L46.615,299.972L48.682,299.947L50.75,299.945L52.75,299.974L54.818,299.976L56.818,299.952L58.886,299.916L60.953,299.899L62.82,299.95L64.888,299.947L66.888,299.983L68.956,299.932L70.956,299.799L73.024,299.874L75.091,299.901L77.092,299.9L79.159,299.938L81.16,299.967L83.227,299.913L85.294,299.877L87.228,299.949L89.296,299.934L91.296,299.912L93.364,299.948L95.364,299.893L97.432,299.94L99.499,299.911L101.5,299.955L103.567,299.954L105.568,299.95L107.635,299.947L109.702,299.934L111.57,299.951L113.637,299.941L115.638,299.98L117.705,299.957L119.706,299.933L121.773,299.96L123.84,299.908L125.841,299.908L127.908,299.952L129.909,299.898L131.976,299.946L134.044,299.892L135.911,299.959L137.978,299.965L139.979,299.914L142.046,275.26L144.047,284.474L146.114,282.607L148.182,280.781L150.182,276.057L152.25,274.258L154.25,273.136L156.318,269.116L158.385,267.687L160.252,268.165L162.319,264.444L164.32,265.641L166.387,261.273L168.388,255.711L170.455,252.872L172.523,256.997L174.523,261.207L176.591,259.227L178.591,257.348L180.659,255.547L182.726,257.554L184.66,257.647L186.727,259.342L188.728,260.792L190.795,256.198L192.796,253.042L194.863,254.56L196.931,252.28L198.931,254.459L200.999,257.964L202.999,259.157L205.067,258.624L207.134,260.998L209.001,261.415L211.069,263.088L213.069,263.002L215.137,260.306L217.137,259.203L219.205,260.339L221.272,260.874L223.273,261.385L225.34,263.381L227.341,262.846L229.408,260.663L231.475,262.557L233.343,260.552L235.41,263.001L237.411,263.616L239.478,265.729L241.479,261.246L243.546,261.927L245.613,263.242L247.614,265.566L249.681,266.349L251.682,264.423L253.749,267.166L255.817,269.095L257.684,269.088L259.751,266.212L261.752,265.366L263.819,261.623L265.82,265.997L267.887,268.736L269.954,268.335L271.955,265.562L274.022,267.365L276.023,266.106L278.09,266.667L280.158,267.926L282.092,268.549L284.159,268.244L286.16,268.271L288.227,269.039L290.228,269.644L292.295,269.546L294.362,269.569L296.363,272.445L298.43,273.039L300.431,273.613L302.498,272.133L304.566,271.105L306.433,272.938L308.5,273.797L310.501,276.6L312.568,276.623L314.569,273.342L316.636,273.92L318.704,277.243L320.704,277.796L322.772,278.275L324.772,278.701L326.84,275.571L328.907,276.32L330.774,276.256L332.842,278.669L334.842,278.86L336.91,277.168L338.91,277.642L340.978,277.892L343.045,275.754L345.046,278.87L347.113,277.915L349.114,278.685L351.181,279.023L353.248,279.052L355.115,278.216L357.183,278.033L359.183,279.49L361.251,275.243L363.251,274.766L365.319,278.274L367.386,277.12L369.387,276.23L371.454,276.095L373.455,276.183L375.522,274.994L377.589,277.974L379.523,277.425L381.591,276.929L383.591,279.141L385.659,276.271L387.659,277.188L389.727,275.047L391.794,273.93L393.795,276.409L395.862,277.617L397.863,276.982L399.93,276.467L401.997,274.462L403.865,276.054L405.932,275.732L407.933,273.997L410,276.403" data-legend="swift" style="stroke: rgb(31, 119, 180); fill: none;"></path><path class="line" d="M2.067,299.271L4.068,300L6.135,299.866L8.136,299.86L10.203,299.145L12.271,299.23L14.138,299.669L16.205,299.048L18.206,299.869L20.273,299.701L22.274,297.443L24.341,297.573L26.409,292.94L28.409,296.608L30.477,295.92L32.477,296.424L34.545,296.474L36.612,295.413L38.479,295.517L40.547,294.618L42.547,295.495L44.615,294.682L46.615,293.551L48.682,292.519L50.75,293.537L52.75,294.355L54.818,294.177L56.818,294.605L58.886,294.76L60.953,293.466L62.82,292.962L64.888,291.657L66.888,292.864L68.956,292.485L70.956,292.409L73.024,290.78L75.091,289.871L77.092,289.703L79.159,290.616L81.16,290.018L83.227,289.955L85.294,288.917L87.228,288.76L89.296,289L91.296,289.029L93.364,287.527L95.364,286.802L97.432,287.086L99.499,286.54L101.5,285.797L103.567,284.702L105.568,284.95L107.635,283.922L109.702,281.783L111.57,282.152L113.637,282.013L115.638,282.02L117.705,281.24L119.706,281.333L121.773,281.07L123.84,282.658L125.841,280.977L127.908,279.208L129.909,280.616L131.976,279.178L134.044,276.574L135.911,277.367L137.978,276.427L139.979,275.348L142.046,275.218L144.047,275.063L146.114,274.639L148.182,276.086L150.182,273.08L152.25,272.719L154.25,274.483L156.318,272.865L158.385,270.4L160.252,268.414L162.319,270.558L164.32,269.019L166.387,269.327L168.388,265.668L170.455,267.547L172.523,268.502L174.523,266.792L176.591,266.573L178.591,268.938L180.659,267.136L182.726,267.957L184.66,266.185L186.727,264.657L188.728,266.214L190.795,264.695L192.796,264.254L194.863,264.871L196.931,267.46L198.931,263.625L200.999,265.763L202.999,267.255L205.067,266.736L207.134,264.633L209.001,261.465L211.069,259.816L213.069,261.019L215.137,257.946L217.137,257.051L219.205,256.617L221.272,256.111L223.273,254.996L225.34,255.027L227.341,256.869L229.408,255.817L231.475,250.444L233.343,250.253L235.41,250.932L237.411,252.363L239.478,250.983L241.479,253.383L243.546,256.193L245.613,256.08L247.614,254.159L249.681,252.287L251.682,256.526L253.749,255.343L255.817,250.939L257.684,252.831L259.751,249.262L261.752,251.883L263.819,250.814L265.82,252.975L267.887,251.217L269.954,251.262L271.955,251.425L274.022,251.121L276.023,252.239L278.09,252.281L280.158,245.513L282.092,244.579L284.159,242.881L286.16,245.508L288.227,246.517L290.228,249.733L292.295,248.83L294.362,243.238L296.363,239.579L298.43,239.874L300.431,245.33L302.498,247.545L304.566,244.498L306.433,241.228L308.5,240.343L310.501,241.051L312.568,243.876L314.569,244.883L316.636,244.138L318.704,245.008L320.704,240.785L322.772,242.882L324.772,246.64L326.84,245.467L328.907,241.915L330.774,238.638L332.842,238.213L334.842,239.784L336.91,240.953L338.91,244.228L340.978,243.366L343.045,242.371L345.046,237.727L347.113,238.427L349.114,243.917L351.181,243.199L353.248,235.536L355.115,236.27L357.183,236.097L359.183,239.667L361.251,241.175L363.251,245.366L365.319,243.637L367.386,244.245L369.387,244.137L371.454,244.097L373.455,246.012L375.522,244.423L377.589,242.571L379.523,245.261L381.591,246.884L383.591,250.444L385.659,253.378L387.659,257.469L389.727,259.992L391.794,262.249L393.795,260.157L395.862,259.563L397.863,264.024L399.93,264.538L401.997,259.489L403.865,259.684L405.932,253.556L407.933,259.891L410,257.684" data-legend="r" style="stroke: rgb(255, 127, 14); fill: none;"></path><path class="line" d="M2.067,293.921L4.068,289.519L6.135,285.837L8.136,282.734L10.203,284.711L12.271,279.784L14.138,275.953L16.205,271.755L18.206,267.219L20.273,270.707L22.274,264.615L24.341,263.96L26.409,264.497L28.409,265.239L30.477,266.745L32.477,265.043L34.545,262.866L36.612,262.097L38.479,263.553L40.547,261.118L42.547,257.673L44.615,256.7L46.615,246.55L48.682,250.568L50.75,254.539L52.75,254.21L54.818,255.86L56.818,255.755L58.886,254.226L60.953,250.749L62.82,249.335L64.888,243.376L66.888,241.5L68.956,243.312L70.956,238.419L73.024,239.882L75.091,246.026L77.092,245.93L79.159,245.153L81.16,246.309L83.227,245.559L85.294,247.809L87.228,251.912L89.296,249.16L91.296,251.797L93.364,251.31L95.364,249.087L97.432,250.072L99.499,256.918L101.5,253.805L103.567,256.418L105.568,253.843L107.635,256.618L109.702,257.237L111.57,257.355L113.637,260.249L115.638,261.487L117.705,264.282L119.706,264.262L121.773,264.955L123.84,259.966L125.841,259.326L127.908,261.651L129.909,259.529L131.976,260.793L134.044,259.045L135.911,259.437L137.978,259.751L139.979,260.291L142.046,261.253L144.047,260.412L146.114,262.025L148.182,262.182L150.182,264.158L152.25,267.089L154.25,267.259L156.318,269.746L158.385,268.408L160.252,270.965L162.319,270.06L164.32,271.608L166.387,272.093L168.388,271.457L170.455,272.37L172.523,272.798L174.523,274.44L176.591,277.905L178.591,277.995L180.659,278.053L182.726,279.167L184.66,280.947L186.727,280.955L188.728,282.278L190.795,281.027L192.796,282.175L194.863,283.226L196.931,283.488L198.931,284.321L200.999,285.01L202.999,284.513L205.067,286.039L207.134,287.128L209.001,287.932L211.069,289.247L213.069,289.306L215.137,288.437L217.137,289.625L219.205,290.651L221.272,290.776L223.273,291.484L225.34,291.936L227.341,292.592L229.408,293.047L231.475,293.524L233.343,294.196L235.41,294.241L237.411,294.121L239.478,294.719L241.479,294.617L243.546,294.972L245.613,295.187L247.614,295.617L249.681,296.173L251.682,296.526L253.749,296.347L255.817,296.63L257.684,296.82L259.751,296.508L261.752,296.929L263.819,296.805L265.82,297.272L267.887,297.402L269.954,296.913L271.955,296.469L274.022,296.893L276.023,296.869L278.09,296.94L280.158,297.083L282.092,297.431L284.159,297.364L286.16,297.552L288.227,297.843L290.228,297.096L292.295,297.651L294.362,297.323L296.363,297.052L298.43,297.368L300.431,297.979L302.498,298.197L304.566,297.737L306.433,298.041L308.5,297.982L310.501,298.38L312.568,298.16L314.569,298.336L316.636,298.308L318.704,298.503L320.704,298.179L322.772,298.181L324.772,298.355L326.84,298.099L328.907,298.617L330.774,298.89L332.842,298.298L334.842,298.776L336.91,298.587L338.91,298.702L340.978,298.755L343.045,298.646L345.046,298.692L347.113,298.516L349.114,299.022L351.181,299.057L353.248,298.913L355.115,298.841L357.183,299.014L359.183,298.446L361.251,299.04L363.251,298.891L365.319,298.983L367.386,299.132L369.387,299.061L371.454,298.786L373.455,298.561L375.522,299.037L377.589,298.891L379.523,298.792L381.591,298.685L383.591,298.736L385.659,298.726L387.659,298.733L389.727,299.035L391.794,297.957L393.795,298.669L395.862,298.849L397.863,298.305L399.93,298.759L401.997,299.093L403.865,298.499L405.932,299.372L407.933,298.405L410,298.286" data-legend="objective-c" style="stroke: rgb(44, 160, 44); fill: none;"></path></g></g><g transform="translate(20, 150)"><text font-family="sans-serif" transform="rotate(-90)" x="-50" y="0" dy="1em" class="axis-label y-axis-label" style="text-anchor: middle; font-weight: bold;">% of Stack Overflow questions that month</text></g><g font-family="sans-serif" class="legend" transform="translate(530, 20)" style="font-size: 12px;"><rect y="0" width="10" height="10" style="fill: rgb(31, 119, 180);"></rect><rect y="15" width="10" height="10" style="fill: rgb(255, 127, 14);"></rect><rect y="30" width="10" height="10" style="fill: rgb(44, 160, 44);"></rect><rect y="45" width="10" height="10" style="fill: rgb(214, 39, 40);"></rect><rect y="60" width="10" height="10" style="fill: rgb(148, 103, 189);"></rect><rect y="75" width="10" height="10" style="fill: rgb(140, 86, 75);"></rect><rect y="90" width="10" height="10" style="fill: rgb(227, 119, 194);"></rect><rect y="105" width="10" height="10" style="fill: rgb(127, 127, 127);"></rect><rect y="120" width="10" height="10" style="fill: rgb(188, 189, 34);"></rect><rect y="135" width="10" height="10" style="fill: rgb(23, 190, 207);"></rect><rect y="150" width="10" height="10" style="fill: rgb(31, 119, 180);"></rect><rect y="165" width="10" height="10" style="fill: rgb(255, 127, 14);"></rect><rect y="180" width="10" height="10" style="fill: rgb(44, 160, 44);"></rect><text font-size="10px" x="13" y="5" text-anchor="left" style="alignment-baseline: middle;">java</text><text font-size="10px" x="13" y="20" text-anchor="left" style="alignment-baseline: middle;">c</text><text font-size="10px" x="13" y="35" text-anchor="left" style="alignment-baseline: middle;">c++</text><text font-size="10px" x="13" y="50" text-anchor="left" style="alignment-baseline: middle;">python</text><text font-size="10px" x="13" y="65" text-anchor="left" style="alignment-baseline: middle;">vb.net</text><text font-size="10px" x="13" y="80" text-anchor="left" style="alignment-baseline: middle;">javascript</text><text font-size="10px" x="13" y="95" text-anchor="left" style="alignment-baseline: middle;">assembly</text><text font-size="10px" x="13" y="110" text-anchor="left" style="alignment-baseline: middle;">php</text><text font-size="10px" x="13" y="125" text-anchor="left" style="alignment-baseline: middle;">perl</text><text font-size="10px" x="13" y="140" text-anchor="left" style="alignment-baseline: middle;">ruby</text><text font-size="10px" x="13" y="155" text-anchor="left" style="alignment-baseline: middle;">swift</text><text font-size="10px" x="13" y="170" text-anchor="left" style="alignment-baseline: middle;">r</text><text font-size="10px" x="13" y="185" text-anchor="left" style="alignment-baseline: middle;">objective-c</text></g></svg>